<svg width="62" height="62" viewBox="0 0 62 62" fill="none" xmlns="http://www.w3.org/2000/svg">
<path d="M9.59745 12.2142C3.83081 16.4131 -0.00370526 24.0685 0.403407 31.7966C0.558747 34.747 1.29365 37.6268 2.26341 40.3728C3.78823 44.6903 5.92994 48.7748 8.83863 52.0664C11.7475 55.3581 15.4545 57.8288 19.5021 58.6992C21.4904 59.1268 23.5304 59.1687 25.5244 59.5623C27.3163 59.916 29.0576 60.5509 30.8503 60.9001C36.4416 61.9892 42.2819 60.1907 47.0957 56.803C51.9095 53.4153 55.7782 48.5346 58.9818 43.2526C59.8295 41.8549 60.6424 40.409 61.1442 38.8131C61.7437 36.9057 61.8771 34.8545 61.9104 32.8311C61.9891 28.0201 61.4776 23.0201 59.2649 18.9061C57.6287 15.8639 55.1537 13.4908 52.4743 11.6126C47.943 8.43617 42.4952 6.52864 37.2402 7.56844H37.24C34.8116 8.04896 32.45 8.69476 29.9731 8.8193C27.8831 8.92445 25.837 8.31531 23.756 8.1896C18.8224 7.89163 13.7703 9.17567 9.59745 12.2142Z" fill="#EA5159"/>
<path d="M9.62526 16.779C9.56227 16.7813 9.49869 16.7873 9.43473 16.7974C8.81395 16.8958 8.31896 17.3552 7.89241 17.8157C4.64251 21.3248 2.86164 26.4259 3.37413 31.1944C3.78552 35.0221 5.51817 38.6592 8.04969 41.5643C9.18879 42.8714 10.5869 44.0904 12.2964 44.3927C13.633 44.629 15.0225 44.2685 16.2201 43.6307C18.0735 42.6436 19.5068 41.0451 21.037 39.6088C23.155 37.6206 25.5248 35.8921 28.0713 34.4901C29.1386 33.9023 29.9902 33.8368 31.1236 33.5605C32.5513 33.2125 34.0461 32.5021 35.3252 31.7903C37.2459 30.7216 38.9877 29.057 39.4545 26.9128C39.5871 26.3038 39.5822 25.5886 39.1364 25.1521C38.8191 24.8415 38.3475 24.7463 37.903 24.7379C35.1565 24.6865 33.1462 27.2416 30.6323 28.3468C29.3303 28.9193 27.8566 29.0958 26.4559 28.8475C24.9845 28.5866 23.4653 27.6866 23.1426 26.2305C22.8624 24.9663 23.5468 23.7179 23.9212 22.4781C24.2957 21.2383 24.1644 19.5651 22.9612 19.08C22.4197 18.8617 21.8073 18.9587 21.2359 19.0788C20.1318 19.311 19.0433 19.6179 17.9806 19.9964C16.586 20.4932 14.9961 21.105 13.7007 20.389C12.8491 19.9184 12.38 18.993 11.8187 18.1992C11.2947 17.459 10.5095 16.7468 9.62526 16.779Z" fill="#EE736C"/>
<path d="M59.2647 18.9061C57.6285 15.8639 55.1535 13.4908 52.4741 11.6126C47.9428 8.43617 42.495 6.52864 37.24 7.56844H37.2398C35.088 7.99425 32.9885 8.54888 30.8151 8.75664C31.6511 9.07052 32.4917 9.3714 33.3412 9.64959C35.5655 10.3786 37.9339 10.9668 40.1304 11.1362C42.2533 11.2999 44.3293 11.5082 46.34 12.2598C49.795 13.551 52.936 15.8802 54.6088 19.2355C56.39 22.8085 56.5195 27.0608 55.6878 30.911C54.8679 34.7062 52.8773 38.1894 50.2915 41.0607C48.9846 42.5117 47.4896 43.7797 45.9018 44.9143C45.0751 45.5052 44.1915 46.0063 43.3595 46.5887C42.5766 47.1367 42.3919 47.3035 41.6461 47.8822C40.092 49.0885 38.5298 50.1996 36.614 50.7628C34.6743 51.333 32.6222 51.156 30.6345 51.4051C30.7047 51.4012 30.1162 51.4978 30.0491 51.5116C29.841 51.5543 29.634 51.6024 29.4285 51.6565C29.0694 51.751 28.7216 51.8711 28.3709 51.9906C27.7592 52.1989 26.5966 52.8572 25.755 53.2836C23.746 54.3012 21.6247 55.2411 19.3854 55.5967C16.1071 56.1174 13.2696 55.4109 10.7466 53.9996C13.2994 56.3125 16.2934 58.009 19.5021 58.699C21.4904 59.1266 23.5304 59.1685 25.5244 59.5621C27.3163 59.9158 29.0575 60.5507 30.8503 60.8999C36.4416 61.989 42.2819 60.1905 47.0957 56.8028C51.9095 53.4151 55.7782 48.5344 58.9818 43.2524C59.8295 41.8547 60.6424 40.4088 61.1442 38.8129C61.7437 36.9055 61.8771 34.8543 61.9104 32.8309C61.9891 28.0203 61.4774 23.0201 59.2647 18.9061Z" fill="#D03D4C"/>
<path d="M50.402 15.9409C51.2026 16.4769 52.0096 17.4277 51.5949 18.2962C51.4334 18.6349 51.111 18.8712 50.7725 19.0343C49.614 19.5928 48.2457 19.425 46.987 19.1589C45.4735 18.8386 36.6467 17.0158 38.9834 14.2117C40.8914 11.9222 48.491 14.6617 50.402 15.9409Z" fill="#C4413D"/>
<path d="M34.1 19.626C34.855 20.1696 35.8447 20.6951 36.666 20.2577C37.0855 20.0342 37.3245 19.6222 37.4314 19.1544C37.5198 18.7676 37.5181 18.3428 37.4536 17.9556C36.3907 11.5874 30.5037 17.0374 34.1 19.626Z" fill="#C4413D"/>
<path d="M22.5416 5.95579C21.248 5.93717 19.9572 6.19052 18.6719 6.36395C17.379 6.53854 16.0729 6.63282 14.7649 6.64621C13.9231 6.65475 13.0577 6.62545 12.2783 6.31991C11.4989 6.01418 10.8145 5.37653 10.7082 4.5928C10.212 6.43534 11.6423 8.38206 13.4911 9.19081C15.3398 9.99937 17.4747 9.91789 19.4869 9.66764C21.4992 9.41739 21.9385 8.39893 23.9597 8.62047C21.1527 10.1835 20.648 13.3713 17.6994 14.6893C15.535 15.657 12.9898 15.8674 10.6617 15.2711C12.0745 16.6176 14.1494 17.2324 16.1542 17.2176C18.159 17.2029 20.1081 16.613 21.9259 15.8366C24.2097 14.861 25.8878 12.5818 27.0272 10.8423C27.8868 11.8679 26.2029 15.8704 26.8217 18.2276C27.4406 20.5848 28.1175 23.2252 26.8035 25.2986C28.4479 24.2103 29.5697 22.5565 30.4088 20.8399C31.0414 19.5457 31.5434 18.1612 31.5426 16.7325C31.5416 14.6862 29.5187 13.5318 30.3856 10.9009C31.2918 12.5711 32.7457 13.978 34.4844 14.9043C36.3696 15.9086 38.6406 15.9167 40.759 16.3295C43.1299 16.7914 45.384 17.7952 47.2705 19.2286C47.0865 17.6233 45.4017 16.5912 43.8946 15.7988C41.8946 14.7473 39.8948 13.6959 37.8948 12.6447C36.5442 11.9346 34.5271 12.3626 33.1851 10.2114C34.2897 10.6341 36.0057 11.4611 37.1778 11.6598C39.5783 12.0666 42.02 11.541 44.4213 11.1843C46.8225 10.8275 49.4091 10.6648 51.5838 11.7117C49.4178 9.49033 46.1012 8.54404 42.9089 8.38962C39.7165 8.2352 37.2225 9.43912 34.2131 8.95453C36.6461 8.72639 37.9699 7.59639 40.1314 6.54048C42.293 5.48458 44.6822 4.53053 47.1072 4.86303C45.0941 4.41879 43.0108 3.97241 40.9851 4.32218C39.5629 4.56778 38.2578 5.19243 36.9268 5.71679C35.2741 6.36783 33.5819 6.73797 31.8692 7.20471C30.3582 7.61656 28.8729 8.17623 27.2677 7.58378C25.8306 7.05321 24.8779 6.1558 23.2376 5.9942C23.0059 5.97112 22.7738 5.95909 22.5416 5.95579Z" fill="#27AB66"/>
<path d="M30.8166 10.0907C32.4045 9.97493 34.0261 9.03969 34.2133 7.69571C33.1637 7.68329 32.2269 8.22143 31.2169 8.46469C30.4253 8.65558 24.8243 8.33006 24.8243 8.33006C25.7719 10.819 30.0841 10.1387 30.8166 10.0907Z" fill="#45B280"/>
<path d="M29.6788 0.0882934C29.446 -0.00385307 29.1875 0.0698647 28.9474 0.145134C28.5509 0.269289 28.1005 0.45009 27.944 0.932355C27.8553 1.2053 27.8854 1.5153 27.9282 1.80571C28.0456 2.60224 28.2478 3.37685 28.3386 4.17901C28.4522 5.18273 28.3868 6.21884 28.1489 7.18629C28.0661 7.52306 27.9615 7.86021 27.962 8.21328C27.965 10.2355 30.6946 10.2124 31.3311 8.81175C30.8717 7.61734 30.4224 6.63321 30.2465 5.29777C30.117 4.31539 30.0713 3.31866 30.0563 2.32367C30.0481 1.7768 30.2566 0.39713 29.7416 0.117586C29.7207 0.106335 29.6999 0.096635 29.6788 0.0882934Z" fill="#5E2617"/>
</svg>
