<svg width="420" height="420" viewBox="0 0 420 420" fill="none" xmlns="http://www.w3.org/2000/svg">
<path d="M300.37 31.9047C299.074 33.0057 298.034 34.5534 297.272 36.5269C294.016 44.9923 285.197 54.0913 274.269 60.2819C270.29 62.5359 264.588 66.2752 258.551 70.2327L253.334 73.6396L250.731 75.3327C243.575 79.9445 234.894 85.3353 231.162 86.1144C231.073 86.1351 230.964 86.1559 230.846 86.1663C230.301 86.2494 229.549 86.2806 228.599 86.2806C227.777 86.2806 226.886 86.2494 226.025 86.2078C225.332 86.1767 224.659 86.1351 224.046 86.0832C223.57 86.052 223.135 86.0105 222.779 85.9793C222.393 85.9482 222.086 85.917 221.898 85.9066L221.818 85.8755H221.66C221.195 85.8235 220.621 85.7716 220.007 85.7197C219.265 85.6573 218.473 85.6054 217.73 85.5535C216.305 85.46 215.117 85.3873 215.107 85.3873C215.226 85.3873 215.682 85.3665 215.682 85.3665C216.315 85.3457 216.968 85.2938 217.612 85.2107C218.324 85.1172 218.938 85.0237 219.502 84.8887C221.294 84.494 222.6 83.8915 223.363 83.1125L223.57 82.9152L223.689 82.6555C223.996 82.0323 224.283 81.3779 224.55 80.7027L224.58 80.5989C224.808 80.0068 225.025 79.3836 225.213 78.7396L225.332 78.3449C225.481 77.8152 225.609 77.2958 225.718 76.7765L225.768 76.5479C225.926 75.717 226.045 74.938 226.124 74.1589C226.886 66.7219 230.648 60.0119 238.329 52.3878C242.129 48.6173 244.782 46.5399 246.881 45.013L245.168 41.9904C242.417 43.4342 239.991 45.0754 237.962 46.8723C234.795 49.6664 231.578 53.1461 228.163 56.8334C224.778 60.5 220.937 64.6548 217.196 67.906L217.077 68.0098L216.978 68.1345C214.514 71.2402 212.821 75.3119 211.831 78.1683C211.564 78.9577 211.346 79.6537 211.168 80.2457C210.891 81.1909 210.732 81.8453 210.683 82.0427V81.97C210.762 81.3571 210.841 80.7755 210.921 80.2146C211.514 76.0909 212.237 73.4319 212.87 71.3545C212.88 71.3441 212.91 71.2506 212.91 71.2506L212.94 71.1467C213.85 68.5707 218.404 55.7636 221.531 48.1915L222.412 46.0517L223.669 46.2076L220.898 42.7902C219.651 41.253 218.087 40.0481 216.275 39.2067L212.831 37.6071L213.999 41.3568C214.019 41.4192 214.038 41.4711 214.058 41.523C214.048 41.4919 214.029 41.4607 214.019 41.4295L213.157 38.7393L211.247 40.7544C206.189 46.0829 197.36 56.0544 194.559 63.4292L194.519 63.4915L194.499 63.5642L194.43 63.72L194.42 63.7927L194.024 64.7899C192.955 67.4801 191.748 70.5131 190.253 76.7349C190.124 77.2854 189.986 77.8567 189.857 78.4695C189.748 78.9266 189.531 79.9029 189.531 79.9029C189.531 79.851 189.56 79.4355 189.649 78.6877C189.699 78.2514 189.768 77.6905 189.857 77.0154C190.204 74.5744 190.699 71.853 191.342 68.9343C191.956 66.1194 192.045 63.6785 192.035 62.4736V61.6011L191.372 61.0713C188.669 58.942 184.581 55.7947 180.404 52.8448C179.227 52.0243 177.979 51.2868 176.663 50.5078C173.297 48.5135 169.813 46.4465 167.705 42.9149L165.082 38.5004L164.617 43.6835C164.181 48.555 165.122 52.6994 167.329 55.6909C172.605 62.8163 185.195 74.938 185.334 75.0626C185.334 75.0626 184.562 74.8445 183.057 74.564C180.84 74.1589 177.217 73.6811 172.535 73.6811C170.071 73.6811 167.557 73.8162 165.062 74.0862C163.221 74.2836 161.469 74.3771 159.856 74.3771C150.532 74.3771 145.434 71.0428 140.663 66.0363C139.367 64.6756 137.654 63.0345 135.674 61.1337C126.667 52.5021 118.6 44.3171 118.679 39.134C118.749 34.4183 118.778 28.9859 118.768 22.9926L115.443 22.6291C113.582 32.0189 113.215 39.0094 114.364 43.4238C115.72 48.6277 119.402 53.1149 124.054 58.807C126.816 62.1931 129.943 66.0155 132.992 70.5547C133.279 70.9805 133.566 71.4168 133.853 71.8634L133.952 72.0088C135.882 74.9691 138.07 78.3241 141.514 80.7027L141.603 80.7651C142.385 81.2948 143.148 81.7311 143.89 82.0738L144.009 82.1361C144.731 82.4581 145.503 82.749 146.285 82.9775C146.691 83.0918 147.087 83.1956 147.503 83.2891L147.641 83.3307C149.077 83.6734 150.621 83.9123 152.224 84.0577L152.462 84.0785L152.699 84.037C153.056 83.9539 153.828 83.7877 154.877 83.528C155.491 83.3722 156.213 83.1852 156.995 82.9671C157.648 82.7905 158.341 82.5932 159.074 82.3647C159.925 82.105 160.806 81.8142 161.707 81.4922C162.726 81.1286 163.617 80.7858 164.458 80.4327C165.349 80.0587 166.25 79.7368 167.24 79.4459C167.834 79.2693 168.418 79.1031 169.051 78.9681C170.684 78.5319 172.436 78.3137 174.258 78.3137C174.891 78.3137 175.544 78.3345 176.247 78.3968C179.761 78.5942 182.295 79.4355 183.225 79.7783C183.394 79.851 183.503 79.8926 183.542 79.9133C181.275 79.1862 179.088 78.6981 177.009 78.4695C176.247 78.4072 175.465 78.3657 174.683 78.3657C172.812 78.3657 170.942 78.563 169.051 78.9785C164.914 80.0795 162.261 82.2816 160.301 83.9019L150.264 92.5127L151.977 95.4938C162.914 90.6431 167.745 89.6252 169.863 89.6252C170.021 89.6252 170.17 89.6252 170.318 89.6459C172.268 89.8225 175.079 90.6015 177.672 91.3494L191.718 95.4627C197.598 96.9999 202.171 97.8101 206.12 97.9971C206.14 97.9971 208.476 98.236 212.197 98.236C217.849 98.236 226.282 97.6959 234.379 95.151C236.636 94.4447 238.804 93.593 240.813 92.6166C244.05 91.0378 246.871 89.1266 249.177 86.9557C250.187 86.0105 251.206 85.0757 252.226 84.1616C254.344 82.2608 256.561 80.3496 258.818 78.4799C259.461 77.9398 260.114 77.4205 260.758 76.8907C261.362 76.4025 262.698 75.3327 262.698 75.3327C268.36 70.8351 273.794 66.888 278.159 63.72C281.772 61.0921 284.89 58.8277 287.196 56.9477C293.343 51.9412 300.945 44.5456 302.241 37.7422L302.528 36.1945C302.716 35.1973 302.875 34.3872 303.043 33.7328L304.389 28.5081L300.37 31.9047ZM195.974 80.6196L195.865 80.9313L196.311 78.9473L195.865 80.9209C195.905 80.7755 195.954 80.6612 195.974 80.6196ZM198.429 71.7492C201.082 60.6766 207.971 51.8892 208.268 51.5257C208.189 51.6192 201.082 60.7078 198.429 71.7492ZM215.404 43.8289C215.394 43.8289 215.394 43.8082 215.385 43.7978C215.394 43.8185 215.414 43.8393 215.424 43.8497C215.424 43.8497 215.414 43.8393 215.404 43.8289ZM214.622 42.7798C214.613 42.7591 214.603 42.7487 214.593 42.7383C214.603 42.7487 214.613 42.7591 214.622 42.7798Z" fill="#55B71C"/>
<path d="M226.758 86.239L224.986 86.1663L225.154 84.3278C225.293 82.6243 225.956 80.5366 227.104 78.106L227.48 77.3062L228.322 77.1504C234.023 76.1325 239.586 75.4677 244.852 75.208L245.792 78.4696C238.17 83.2372 233.667 85.595 231.172 86.1144C230.628 86.2286 229.846 86.291 228.727 86.291C228.124 86.291 227.451 86.2702 226.758 86.239ZM85.748 149.787C85.5204 154.606 83.3527 164.692 79.9972 166.79L78.8094 167.538L77.879 166.437C65.0212 151.137 52.886 132.794 41.8396 111.916C38.405 105.445 26.9528 81.6168 23.815 74.429C22.8252 72.175 22.6273 70.5131 23.2211 69.4952C23.528 68.9343 24.1219 68.5396 24.9929 68.3111L26.3193 67.9683L26.7152 68.8408C26.6162 68.6227 26.3193 67.9579 26.3193 67.9579L26.3094 67.9268C25.7848 66.6803 25.9728 64.9769 27.6159 63.9278C28.1208 63.5954 28.6553 63.4292 29.1898 63.4292C29.4273 63.4292 29.655 63.4604 29.8826 63.5331L31.0209 63.8551L31.0803 64.6133L31.0605 64.3121L31.5752 63.7512C32.1394 63.1487 33.0204 62.4217 34.0399 62.4217H34.1982C35.1683 62.5048 36.0492 63.2422 36.8312 64.6341C38.9989 68.4773 42.7305 76.4233 43.8292 78.7604L43.948 79.0097L43.9084 78.8227V78.8019C43.7203 77.9294 43.3145 75.26 44.819 73.7954L46.6007 72.0712L47.5113 74.4394C48.0755 75.9144 48.511 78.937 49.0356 82.7386C49.8671 88.8877 50.9064 96.5429 53.6185 102.11C58.7952 112.695 68.4856 129.345 85.3125 148.509L85.7876 149.06L85.748 149.787ZM44.0074 79.6537C44.0271 79.9653 44.0469 80.2769 44.0469 80.5677C44.0568 80.2769 44.0271 79.9653 44.0074 79.6537ZM43.9579 79.072L43.9777 79.1966C43.9678 79.1655 43.9777 79.1343 43.9678 79.1032L43.9579 79.072ZM43.9579 81.7726C43.9876 81.5129 44.0074 81.2325 44.0172 80.9624C44.0074 81.2325 43.9876 81.5129 43.9579 81.7726ZM43.75 82.9256C43.7896 82.7282 43.8193 82.5205 43.8589 82.3231C43.8193 82.5205 43.7896 82.7282 43.75 82.9256ZM42.8889 92.3673C41.9089 89.3655 42.5721 87.0908 43.2155 84.8991C43.2254 84.8679 43.2353 84.8368 43.2452 84.8056C43.2353 84.8368 43.2254 84.8575 43.2155 84.8887C42.5424 87.1946 41.9089 89.3655 42.8889 92.3673ZM32.0008 68.1241C32.6937 69.7964 33.733 71.8115 34.9208 74.1174C35.4751 75.1873 36.069 76.3194 36.6728 77.5243C36.069 76.3298 35.485 75.1977 34.9307 74.1278C33.6835 71.7076 32.6739 69.7133 32.0008 68.1241ZM27.5665 70.6793C29.2195 74.1797 31.4366 78.5526 32.0404 79.7472C31.4762 78.6357 29.2294 74.2109 27.5665 70.6793ZM390.909 56.1583C388.771 63.7304 380.635 89.0123 378.101 95.9405C363.372 136.304 347.04 160.464 338.607 171.267C338.083 171.952 337.568 172.607 337.093 173.189C336.578 173.822 336.113 174.383 335.687 174.892L332.797 178.143L332.777 178.205C333.124 179.4 338.746 198.813 330.867 226.567V226.868L330.778 227.149C320.503 258.663 297.54 283.883 266.133 298.165L263.163 299.515L263.826 296.191L263.48 296.679C263.064 297.292 262.292 298.414 261.322 299.91C260.837 300.647 260.313 301.468 259.748 302.382C259.283 303.13 258.798 303.93 258.293 304.771C252.859 313.859 244.149 330.655 246.801 341.032C248.811 348.895 267.796 359.739 284.89 367.259L286.582 368.007L269.231 402.17L267.647 400.799C258.036 392.479 265.163 378.051 265.469 377.438C264.143 377.023 233.182 366.979 226.243 348.105C223.204 339.848 224.986 326.895 231.548 309.601L231.954 308.531L233.122 305.664C233.676 304.303 234.31 302.777 234.835 301.541C235.231 300.606 235.626 299.712 236.012 298.861C237.428 295.838 240.318 289.98 240.833 288.951V288.941C240.13 290.198 234.379 300.294 228.866 304.615C223.996 308.437 218.572 310.754 203.863 312.021C202.418 312.073 201.092 312.094 199.795 312.094C196.014 312.094 192.352 311.907 188.897 311.554L188.422 311.502C187.957 311.45 187.482 311.398 187.016 311.346L186.908 311.325C186.452 311.273 186.017 311.211 185.571 311.138L185.165 311.086C178.494 310.089 172.436 308.417 166.537 305.955C165.973 305.716 165.448 305.498 164.943 305.28L164.805 305.207C164.379 305.031 163.874 304.781 163.36 304.542C156.956 301.541 151.314 297.905 145.86 294.394L143.949 293.158C90.7169 258.995 81.67 211.205 83.4615 177.136L83.4714 176.897C83.511 176.17 83.5605 175.442 83.61 174.705L83.6199 174.518C83.6694 173.791 83.7288 173.043 83.7882 172.306L85.4709 172.337L83.7981 172.181C84.293 166.24 85.1343 160.184 86.2825 154.17L86.7873 151.604C86.916 151.023 87.2229 149.558 87.2229 149.558C90.1824 136.003 94.1417 125.045 96.9528 118.241C103.09 103.346 113.76 92.3985 128.686 85.6885L128.894 85.595L129.102 85.5639C129.548 85.3561 133.576 83.6007 140.406 83.6007C143.247 83.6007 146.196 83.9123 149.176 84.5252C150.522 84.7952 151.977 84.9406 153.481 84.9406C153.778 84.9406 154.075 84.9303 154.362 84.9199L159.321 84.7537L155.481 88.0464C151.472 91.4844 141.94 99.6486 140.148 101.144C140.376 101.03 162.677 89.6148 169.724 89.6148C169.942 89.6148 170.14 89.6252 170.328 89.646C171.872 89.7914 174.05 90.2899 177.593 91.3286C177.87 91.4221 182.859 93.1048 183.829 95.6081C184.077 96.2417 184.047 96.8857 183.73 97.5089C181.998 100.905 181.048 106.94 180.949 107.615L180.929 107.74C182.463 102.806 184.779 99.0981 187.561 97.2492C188.966 96.304 190.491 95.8366 192.084 95.8366C192.846 95.8366 193.628 95.9405 194.43 96.1482L194.499 96.1586C199.082 97.2388 202.844 97.8413 206.08 97.9971C206.595 98.049 208.941 98.2672 212.494 98.2672C218.334 98.2672 227.045 97.6751 235.339 94.8706C237.903 94.0812 240.011 93.3437 241.833 92.6062L241.971 92.5439L242.12 92.5128C242.219 92.492 242.525 92.4504 242.525 92.4504C243.575 92.2739 244.663 92.1908 245.782 92.1908C249.326 92.1908 253.166 92.9906 256.888 94.5071C257.204 94.6525 257.452 94.7667 257.709 94.8706L257.848 94.9122L257.957 94.9537C257.779 94.8706 257.591 94.7875 257.412 94.7148C256.987 94.4967 256.502 94.2682 255.848 93.9877L255.72 93.9254C252.275 92.1388 251.127 90.5912 250.771 89.6148C250.672 89.3551 250.642 89.1474 250.622 89.0227L250.484 87.8906L251.404 87.2985C252.097 86.8519 252.82 86.3844 253.621 85.8859C257.967 83.206 261.589 81.4091 264.569 79.9964C264.767 79.9133 267.469 78.8435 271.834 78.8435C274.437 78.8435 277.11 79.2174 279.782 79.9549L279.911 79.9964C286.454 82.4166 292.571 85.7716 298.074 89.9472C314.584 102.505 326.046 122.323 332.124 148.862L332.302 149.672C332.46 149.454 332.619 149.246 332.777 149.028C352.306 122.085 361.423 99.2124 365.115 87.9736C367.055 82.0738 367.065 74.3355 367.065 68.1241C367.065 64.2809 367.094 61.2168 367.451 59.6795L368.035 57.197L370.034 58.6512C371.707 59.8561 371.667 62.5982 371.608 63.4707L371.588 63.7927C371.588 66.0156 372.36 67.7294 373.102 69.3913C374.043 71.4895 375.023 73.6604 374.419 76.8076C375.023 73.6604 374.092 71.583 373.112 69.3913C372.39 67.7917 371.647 66.1402 371.608 63.9693L371.598 63.6681L371.687 63.3876C372.231 61.6322 375.023 52.6683 376.705 48.3888C377.309 46.8723 378.101 45.9998 379.071 45.8025C379.2 45.7817 379.358 45.7609 379.516 45.7609C380.427 45.7609 381.268 46.3114 381.823 46.7685L382.387 47.2359L382.357 46.7685L383.426 46.2803C383.763 46.1245 384.129 46.0414 384.495 46.0414C384.911 46.0414 385.327 46.1452 385.742 46.3322C387.277 47.0281 387.989 48.4823 387.583 50.0715L387.504 50.3624L387.484 50.3935C387.425 50.6117 387.356 50.8506 387.287 51.0895L387.574 50.1338L388.93 50.2793C389.83 50.3831 390.464 50.6844 390.86 51.2245C391.563 52.1385 391.582 53.8005 390.909 56.1583ZM381.664 52.1905C381.219 53.6654 380.605 55.4312 379.873 57.4878C379.813 57.6436 379.764 57.7994 379.705 57.9552C379.764 57.7994 379.823 57.6436 379.873 57.4878C380.576 55.5039 381.199 53.7277 381.664 52.1905ZM241.427 180.719L243.436 181.124C243.872 181.218 244.327 181.259 244.792 181.259C245.198 181.259 245.624 181.228 246.069 181.155C245.643 181.218 245.228 181.249 244.832 181.249C242.714 181.249 241.169 180.366 240.14 179.192L241.15 180.522L239.378 181.519C233.35 184.905 212.534 196.403 198.063 201.815C197.509 202.033 196.954 202.22 196.4 202.407C196.4 202.407 195.083 202.843 194.786 202.937C194.786 202.937 193.49 203.321 193.213 203.394C192.936 203.477 192.648 203.55 192.371 203.622L191.708 203.799C191.382 203.872 191.075 203.944 190.778 204.017L190.283 204.131C189.917 204.204 189.56 204.287 189.214 204.349L189.016 204.391C185.749 205.025 182.562 205.336 179.454 205.336C172.921 205.336 168.932 203.944 168.764 203.892L168.754 203.882C169.536 204.942 185.551 226.173 205.675 229.901L205.932 228.063C207.357 216.668 217.473 210.083 235.201 208.982H235.25L237.814 208.972C241.16 198.564 241.466 187.294 241.437 182.869L241.427 180.719ZM229.242 223.939C233.073 220.242 235.706 215.204 237.517 209.875L236.953 211.381C235.498 215.287 233.676 218.642 231.548 221.353C231.182 221.81 230.816 222.246 230.44 222.672L230.321 222.807C229.915 223.254 229.49 223.69 229.054 224.106L228.955 224.209C228.559 224.573 228.153 224.936 227.728 225.279L227.619 225.362C227.757 225.258 227.896 225.155 228.025 225.04C228.262 224.843 228.5 224.635 228.727 224.428C228.896 224.272 229.074 224.106 229.242 223.939ZM223.175 228.105L223.066 228.156C223.085 228.146 223.175 228.105 223.175 228.105ZM215.474 244.412C213.801 244.412 212.188 244.184 210.663 243.716C212.197 244.184 213.811 244.422 215.484 244.422C218.641 244.422 221.799 243.571 224.164 242.085C221.809 243.56 218.641 244.412 215.474 244.412ZM225.253 227.024C225.58 226.837 225.887 226.619 226.193 226.411C225.788 226.692 225.362 226.962 224.926 227.211L225.253 227.024ZM226.322 226.328C226.441 226.256 226.56 226.183 226.678 226.1C226.787 226.017 226.896 225.934 227.005 225.851L227.223 225.674C227.352 225.58 227.48 225.477 227.609 225.373C227.223 225.695 226.777 226.017 226.322 226.328ZM207.357 230.14L205.744 229.912C207.674 230.265 209.624 230.473 211.613 230.473C214.108 230.473 216.592 230.161 219.017 229.538C219.087 229.517 219.166 229.496 219.245 229.476C219.096 229.507 218.948 229.538 218.948 229.538C218.512 229.652 218.067 229.756 217.632 229.85L216.998 229.964C216.563 230.047 216.127 230.109 215.691 230.172L215.127 230.244C214.632 230.296 214.137 230.338 213.643 230.369L213.286 230.39C212.742 230.421 212.197 230.431 211.653 230.431C210.228 230.431 208.783 230.338 207.357 230.14ZM230.875 169.148L230.974 167.465C231.053 166.001 230.757 164.505 230.113 163.144C229.163 161.15 226.144 157.992 222.096 157.992C221.858 157.992 221.62 158.003 221.373 158.023C219.977 158.148 213.019 159.197 213.237 167.174C213.306 169.875 214.217 172.036 215.919 173.573L217.285 174.809C217.285 174.809 216.008 176.17 215.998 176.18C218.196 173.843 223.442 169.221 230.598 169.221C231.529 169.221 232.459 169.293 233.389 169.449C233.083 169.397 232.776 169.356 232.469 169.325L230.875 169.148ZM214.82 128.94C214.82 128.94 214.395 128.95 214.266 128.961C214.395 128.95 214.82 128.94 214.82 128.94C221.541 128.94 227.371 135.359 227.589 135.598C227.371 135.359 221.561 128.94 214.82 128.94ZM169.318 139.711C167.923 139.265 166.567 139.036 165.28 139.036C163.686 139.036 162.162 139.389 160.737 140.085C162.152 139.4 163.686 139.046 165.3 139.046C166.587 139.046 167.933 139.275 169.318 139.711ZM159.539 187.73C162.924 184.562 167.27 182.89 172.169 182.89C174.307 182.89 176.158 183.202 177.494 183.513L176.267 183.191L176.831 181.394C177.524 179.151 177.227 176.814 175.94 174.466C174.317 171.475 171.991 169.969 169.031 169.969C166.874 169.969 165.112 170.758 164.449 171.101C160.707 173.053 159.321 177.624 159.539 180.252C159.658 181.768 160.153 183.202 160.945 184.417L161.855 185.788L160.598 186.816C160.232 187.107 159.876 187.408 159.539 187.73ZM134.655 110.181C134.655 110.191 134.566 110.295 134.417 110.482C134.556 110.306 134.635 110.202 134.655 110.191V110.181ZM177.069 343.535C175.554 337.646 177.613 328.651 182.998 317.526L183.285 316.934L183.126 316.3C182.176 312.333 176.881 310.203 170.754 307.731C169.665 307.295 168.556 306.838 167.428 306.36C167.091 306.225 166.765 306.09 166.438 305.955L164.914 305.311L164.27 306.9C155.995 327.415 153.382 342.122 156.51 350.619C163.449 369.482 194.41 379.526 195.727 379.942C195.42 380.554 188.303 394.992 197.914 403.312L199.488 404.683L216.85 370.521L215.147 369.773C198.063 362.242 179.078 351.398 177.069 343.535Z" fill="#E45353"/>
<path d="M161.202 188.353C164.359 194.991 163.33 204.162 154.224 209.325C145.107 214.487 130.973 210.28 130.587 195.77C130.25 183.357 139.941 179.556 145.355 179.057C153.115 178.34 159.173 184.095 161.202 188.353ZM247.94 165.336C242.525 165.834 232.835 169.636 233.172 182.059C233.558 196.559 247.702 200.766 256.809 195.604C265.925 190.441 266.954 181.27 263.787 174.632C261.758 170.374 255.7 164.619 247.94 165.336Z" fill="white"/>
<path d="M200.973 303.13C200.171 303.13 199.379 303.119 198.577 303.088C197.657 303.067 196.924 302.257 196.944 301.281C196.974 300.336 197.716 299.577 198.627 299.577C198.637 299.577 198.657 299.577 198.667 299.577C203.141 299.702 207.714 299.453 212.267 298.829C213.177 298.694 214.029 299.39 214.147 300.356C214.266 301.312 213.613 302.195 212.702 302.32C208.783 302.86 204.853 303.13 200.973 303.13ZM187.709 300.294C187.868 299.338 187.264 298.424 186.343 298.258C167.576 294.758 149.433 284.402 132.438 267.482C131.765 266.806 130.706 266.838 130.062 267.544C129.429 268.25 129.458 269.362 130.132 270.026C147.612 287.435 166.329 298.102 185.759 301.717C185.858 301.738 185.957 301.748 186.056 301.748C186.858 301.748 187.561 301.146 187.709 300.294Z" fill="#AD2821"/>
<path d="M241.437 180.366V183.305C241.427 185.196 241.357 188.177 241.061 191.667L240.991 192.508L240.318 192.976C229.678 200.288 205.882 214.072 191.817 214.072C190.283 214.072 188.877 213.905 187.66 213.573C183.74 212.503 180.672 210.218 178.771 208.483L174.832 205.399L179.811 205.357C184.027 205.315 188.363 204.703 192.718 203.539L193.044 203.446C193.708 203.259 194.361 203.061 195.034 202.854L195.638 202.667C196.439 202.407 197.241 202.127 198.073 201.815C209.96 197.369 226.174 188.79 234.785 184.064C236.448 183.15 237.873 182.36 238.952 181.747L241.437 180.366Z" fill="white"/>
<path d="M153.58 153.11C153.392 153.91 152.709 154.44 151.957 154.44C151.818 154.44 151.68 154.419 151.541 154.388C150.641 154.149 150.106 153.194 150.324 152.248C150.423 151.854 152.749 142.495 159.489 138.776C162.865 136.907 166.685 136.782 170.853 138.402C171.714 138.735 172.169 139.753 171.842 140.656C171.526 141.571 170.556 142.038 169.685 141.706C166.458 140.449 163.548 140.511 161.053 141.892C155.619 144.894 153.6 153.027 153.58 153.11ZM207.021 134.881C209.287 132.16 211.861 130.747 214.672 130.706C214.721 130.706 214.771 130.706 214.82 130.706C220.878 130.706 226.312 136.741 226.362 136.803C226.698 137.177 227.144 137.364 227.599 137.364C228.005 137.364 228.411 137.208 228.737 136.896C229.41 136.232 229.45 135.12 228.826 134.403C228.559 134.113 222.353 127.185 214.82 127.185C214.761 127.185 214.692 127.185 214.632 127.185C210.821 127.247 207.417 129.054 204.487 132.565C203.883 133.292 203.952 134.403 204.645 135.047C205.348 135.681 206.407 135.608 207.021 134.881ZM221.224 156.268C217.681 156.6 211.336 159.083 211.554 167.216C211.653 170.675 212.95 173.209 214.83 174.913C214.068 175.723 213.633 176.294 213.553 176.388C212.979 177.146 213.108 178.257 213.831 178.86C214.137 179.109 214.504 179.234 214.87 179.234C215.365 179.234 215.86 179.005 216.186 178.569C216.483 178.174 223.659 168.919 234.181 171.402C235.082 171.62 235.983 171.018 236.191 170.072C236.389 169.127 235.824 168.182 234.924 167.974C234.142 167.787 233.389 167.652 232.647 167.569C232.746 165.751 232.37 163.944 231.608 162.355C230.281 159.571 226.312 155.801 221.224 156.268ZM179.078 185.809C179.949 186.151 180.909 185.684 181.236 184.77C181.553 183.856 181.107 182.848 180.246 182.506C180.127 182.464 179.474 182.215 178.425 181.945C179.187 179.462 179.029 176.585 177.395 173.583C173.545 166.52 166.893 167.87 163.706 169.532C159.133 171.901 157.619 177.291 157.866 180.397C158.005 182.173 158.579 183.918 159.569 185.414C158.975 185.892 158.401 186.422 157.827 187.003C157.163 187.678 157.144 188.79 157.797 189.486C158.124 189.849 158.559 190.026 158.995 190.026C159.42 190.026 159.836 189.86 160.163 189.527C167.903 181.644 178.633 185.632 179.078 185.809ZM392.523 56.6673C390.375 64.2601 382.209 89.6252 379.665 96.5741C363.353 141.29 345.476 165.835 337.776 175.11C338.053 178.538 338.221 181.768 338.32 184.708C338.825 199.301 336.845 213.583 332.45 227.128C332.411 227.253 332.351 227.357 332.292 227.461C327.907 240.839 321.236 253.366 312.476 264.397C299.351 280.902 282.217 293.563 262.144 301.8C256.601 310.504 245.614 329.617 248.425 340.575C250.612 349.144 277.169 362.097 287.216 366.366C287.661 366.553 287.998 366.927 288.166 367.394C288.324 367.872 288.295 368.381 288.067 368.827L270.765 402.876C270.547 403.312 270.171 403.624 269.716 403.748C269.577 403.79 269.439 403.811 269.29 403.811C268.973 403.811 268.666 403.717 268.399 403.541C258.679 397.101 260.372 385.27 263.133 378.498C256.017 375.974 231.034 366.033 224.679 348.739C221.017 338.788 224.56 323.873 229.094 311.294C226.441 311.678 223.442 312.042 220.443 312.353C212.682 313.413 205.783 313.891 199.587 313.891C195.103 313.891 190.986 313.631 187.165 313.174C186.413 314.545 185.66 315.978 184.928 317.443C184.878 317.557 184.819 317.672 184.76 317.786C184.76 317.807 184.74 317.817 184.74 317.827C180.484 326.449 176.96 336.316 178.682 343.078C180.879 351.647 207.436 364.6 217.483 368.879C217.918 369.066 218.265 369.44 218.433 369.908C218.592 370.375 218.552 370.894 218.334 371.331L201.032 405.379C200.814 405.815 200.438 406.137 199.983 406.262C199.844 406.293 199.696 406.314 199.557 406.314C199.241 406.314 198.934 406.221 198.657 406.044C188.946 399.604 190.639 387.773 193.401 381.001C186.284 378.487 161.301 368.537 154.946 351.253C150.918 340.305 156.629 321.307 162.706 306.204C156.312 303.182 150.69 299.567 144.989 295.89L143.078 294.664C110.929 274.025 91.1029 246.126 84.1346 211.724C81.67 199.52 80.9276 186.754 81.8283 173.677C71.1977 161.96 56.0831 142.443 40.3747 112.767C36.9301 106.265 25.4384 82.3647 22.2907 75.1561C21.0535 72.3205 20.8753 70.1807 21.7661 68.6123C22.3996 67.4905 23.429 66.94 24.3792 66.6492C24.3792 65.195 24.9632 63.5642 26.735 62.432C28.3286 61.4037 29.7936 61.5388 30.8725 62.0269C31.6544 61.3206 32.7927 60.6039 34.1982 60.6663C35.8018 60.739 37.1677 61.7673 38.2763 63.7408C39.6225 66.1298 41.5427 70.0353 43.067 73.193C43.6807 72.2997 44.5617 71.6868 45.6307 71.396C46.3235 71.209 47.0461 71.3337 47.6499 71.7596C49.3227 72.9333 49.8176 76.0702 50.6886 82.4893C51.5102 88.5138 52.5297 96.0132 55.1131 101.311C59.795 110.887 69.2576 127.496 85.9856 146.671C88.272 137 91.4098 127.257 95.4086 117.535C101.664 102.37 112.74 91.1417 128.053 84.1824C128.142 84.1097 128.241 84.0474 128.35 83.9954C131.012 82.614 134.576 81.3675 138.288 80.3184C135.863 78.0541 134.111 75.3742 132.566 73.006C132.25 72.5178 131.933 72.0296 131.626 71.5726C128.617 67.1062 125.519 63.3045 122.777 59.9599C118.174 54.3302 114.205 49.4691 112.75 43.8913C109.88 32.8499 116.769 9.97775 117.066 9.00137C117.313 8.1808 118.105 7.67184 118.907 7.79648C119.728 7.93151 120.332 8.64821 120.342 9.51033C120.342 9.67652 120.57 25.4959 120.352 39.1548C120.283 43.9847 130.626 53.9043 136.803 59.8353C138.812 61.7569 140.534 63.4188 141.851 64.7899C147.325 70.5339 152.848 73.6084 164.894 72.3308C171.258 71.6557 176.475 71.9154 180.107 72.3412C175.901 68.1241 169.487 61.4764 166.002 56.7607C160.163 48.877 164.122 37.3267 164.29 36.8385C164.557 36.0803 165.29 35.6024 166.042 35.6959C166.804 35.779 167.418 36.4022 167.527 37.1917C168.388 43.5797 172.803 46.1972 177.484 48.9705C178.781 49.7391 180.107 50.5286 181.335 51.3907C185.898 54.6003 190.362 58.0695 193.025 60.1781C193.025 60.1885 193.034 60.1885 193.034 60.1885L193.262 60.365C193.45 60.5208 193.668 60.687 193.836 60.8324C198.657 50.7675 211.89 37.5968 212.484 37.0047C212.494 36.9943 212.514 36.9839 212.524 36.9735C212.603 36.9112 212.682 36.8489 212.762 36.7866C212.791 36.7762 212.811 36.7554 212.841 36.745C212.95 36.6827 213.058 36.6308 213.177 36.5996C213.217 36.5892 213.256 36.5788 213.296 36.5684C213.375 36.5581 213.464 36.5373 213.543 36.5373C213.593 36.5269 213.642 36.5373 213.692 36.5373C213.732 36.5373 213.781 36.5269 213.821 36.5373C213.87 36.5373 213.91 36.5581 213.949 36.5684C213.969 36.5684 213.989 36.5684 214.019 36.5684C214.058 36.5788 214.098 36.5996 214.137 36.61C214.147 36.61 214.157 36.61 214.157 36.61C221.759 38.5316 224.095 44.7534 224.194 45.0234C224.194 45.0338 224.194 45.0442 224.204 45.065C224.214 45.1065 224.224 45.1585 224.234 45.2C224.253 45.2727 224.273 45.3351 224.283 45.4078C224.283 45.4182 224.283 45.4285 224.283 45.4389C224.293 45.4805 224.283 45.5116 224.293 45.5532C224.293 45.6259 224.293 45.6882 224.293 45.7609C224.293 45.8129 224.283 45.8648 224.273 45.9271C224.263 45.979 224.253 46.0414 224.243 46.0933C224.224 46.1556 224.204 46.2076 224.184 46.2699C224.164 46.3114 224.154 46.353 224.144 46.3945C222.056 51.0583 218.651 60.2819 216.483 66.2441C219.977 63.1591 223.511 59.3471 226.965 55.6078C230.41 51.8892 233.657 48.3784 236.883 45.522C245.01 38.3342 256.027 36.0387 256.492 35.9452C257.244 35.7894 258.016 36.2049 258.333 36.9424C258.659 37.6798 258.452 38.5524 257.848 39.0613C254.918 41.4711 252.691 43.0291 250.533 44.5353C247.168 46.8931 244.258 48.929 239.477 53.6654C232.112 60.9779 228.51 67.3555 227.797 74.3459C227.757 74.7406 227.698 75.1146 227.648 75.4989C235.715 74.0135 243.396 73.2761 250.681 73.2968C253.008 71.7907 255.363 70.2431 257.66 68.7369C263.727 64.7691 269.458 61.009 273.467 58.7343C284.078 52.7306 292.6 43.964 295.718 35.8621C298.707 28.0823 305.042 27.7291 307.972 28.6224C308.695 28.8405 309.18 29.5364 309.18 30.3259C309.17 31.1153 308.665 31.8008 307.942 32.0086C306.349 32.476 305.349 32.7772 305.052 33.1407C304.726 33.5251 304.508 34.7196 304.181 36.5269C304.092 37.0047 303.993 37.524 303.884 38.0953C302.489 45.4182 294.6 53.1461 288.225 58.3396C285.899 60.23 282.762 62.5151 279.109 65.1638C275.407 67.8644 271.052 71.0325 266.429 74.616C271.21 75.4262 275.773 76.6414 280.138 78.2306L280.287 78.2722C280.406 78.3137 280.525 78.3657 280.633 78.428C287.275 80.9001 293.432 84.2551 299.054 88.5242C317.979 102.91 327.927 124.858 333.084 145.673C351.069 120.329 359.74 98.9423 363.531 87.4024C365.382 81.7726 365.382 74.2005 365.382 68.1241C365.382 61.6322 365.451 58.4538 366.956 57.0412C367.49 56.5322 368.183 56.3141 368.905 56.3868C370.004 56.5218 370.954 56.9996 371.687 57.7891C372.766 54.4341 374.151 50.2793 375.161 47.7241C375.993 45.6051 377.21 44.3795 378.784 44.0782C380.15 43.8082 381.387 44.3483 382.258 44.93C383.258 44.2964 384.693 43.9328 386.405 44.7118C388.316 45.5843 389.118 47.1112 389.306 48.555C390.286 48.6901 391.374 49.0848 392.156 50.1027C393.245 51.5257 393.364 53.6758 392.523 56.6673ZM376.537 95.3172C379.051 88.4099 387.168 63.2111 389.306 55.6597C390.038 53.063 389.593 52.3774 389.543 52.3151C389.484 52.232 389.296 52.0866 388.761 52.0347C387.445 56.3868 385.069 63.2215 384.95 63.5331C384.703 64.2498 384.06 64.686 383.377 64.686C383.189 64.686 382.991 64.6549 382.802 64.5821C381.931 64.2498 381.486 63.2318 381.803 62.3178C381.832 62.2347 384.772 53.8108 385.911 49.7807C385.911 49.7599 385.92 49.7495 385.93 49.7288C385.93 49.7184 385.93 49.6976 385.94 49.6872C386.168 48.9082 385.881 48.3161 385.079 47.9422C384.653 47.7552 384.337 47.7864 384.099 47.8903C384.228 50.2066 383.08 53.4888 381.446 58.1007C381.041 59.2432 380.615 60.4481 380.179 61.7257C379.932 62.4424 379.289 62.8891 378.596 62.8891C378.408 62.8891 378.22 62.8579 378.032 62.7852C377.161 62.4528 376.705 61.4453 377.022 60.5312C377.457 59.2432 377.893 58.028 378.299 56.875C379.516 53.4473 380.872 49.6145 380.783 48.1499C380.377 47.8072 379.784 47.454 379.388 47.5371C379.031 47.6098 378.606 48.1811 378.259 49.064C376.606 53.2603 373.815 62.2139 373.28 63.9278C373.31 65.6832 373.914 67.0646 374.627 68.6435C375.636 70.9078 376.784 73.463 376.052 77.2335C375.894 78.0645 375.191 78.6357 374.409 78.6357C374.3 78.6357 374.191 78.6254 374.072 78.6046C373.162 78.4072 372.578 77.4724 372.766 76.5272C373.28 73.9097 372.498 72.1646 371.588 70.1392C370.796 68.363 369.885 66.3479 369.905 63.6889C369.905 63.6473 369.915 63.5954 369.925 63.5538C369.925 63.5331 369.915 63.5227 369.925 63.5019C369.925 63.4811 370.153 60.874 369.084 60.095C368.737 61.5491 368.737 65.1534 368.737 68.1241C368.737 74.4706 368.737 82.3647 366.698 88.5553C362.729 100.646 353.494 123.352 334.113 150.088C333.668 150.701 333.222 151.313 332.767 151.937C332.332 152.529 331.886 153.121 331.451 153.713C329.016 156.954 326.452 160.246 323.71 163.581C323.611 163.695 323.502 163.788 323.384 163.882C322.77 164.318 321.939 164.297 321.345 163.767C320.642 163.134 320.563 162.022 321.166 161.285C324.512 157.203 327.61 153.204 330.491 149.278C325.69 128.306 316.069 105.808 297.084 91.3806C291.68 87.2673 285.761 84.0266 279.347 81.6584C271.022 79.3524 265.43 81.5337 265.252 81.6064C261.975 83.1541 258.491 84.9199 254.472 87.4024C253.681 87.8905 252.968 88.3476 252.285 88.7942C252.295 88.8462 252.305 88.8981 252.334 88.9812C252.473 89.3759 253.176 90.6431 256.462 92.357C257.185 92.6478 257.699 92.9075 258.056 93.084C264.044 95.6808 269.825 100.106 273.863 106.276C274.388 107.086 274.19 108.176 273.428 108.727C273.14 108.935 272.804 109.038 272.477 109.038C271.943 109.038 271.418 108.768 271.092 108.27C267.449 102.682 262.441 98.8696 257.343 96.5845C257.244 96.5637 257.155 96.5429 257.066 96.5014C256.799 96.3871 256.541 96.2625 256.284 96.1482C251.434 94.1747 246.584 93.5722 242.822 94.1747C242.694 94.2058 242.575 94.2162 242.446 94.2474C240.655 94.9745 238.517 95.7327 235.854 96.5429C222.066 101.207 207.238 99.8771 206.001 99.7525C202.24 99.5759 198.211 98.8384 194.212 97.8932C194.173 97.8828 194.123 97.8828 194.084 97.8724C192.005 97.3115 190.164 97.592 188.452 98.7346C185.215 100.885 182.641 106.068 181.394 112.954C181.236 113.806 180.533 114.388 179.741 114.388C179.642 114.388 179.533 114.377 179.424 114.357C178.514 114.17 177.92 113.256 178.098 112.3C178.346 110.908 178.732 109.173 179.296 107.335C179.444 106.317 180.424 100.282 182.245 96.6675C182.344 96.491 182.335 96.4079 182.285 96.2728C181.83 95.1095 179.019 93.6553 177.148 93.0217C174.267 92.1908 171.833 91.5468 170.17 91.4014C165.181 90.9028 147.335 99.4097 140.891 102.723C140.653 102.848 140.406 102.9 140.158 102.9C139.594 102.9 139.05 102.609 138.733 102.079C138.278 101.321 138.436 100.324 139.109 99.7629C140.732 98.4126 148.988 91.339 154.422 86.6753C152.719 86.7376 150.809 86.6441 148.849 86.2494C137.021 83.8188 129.854 87.1427 129.785 87.1738C129.646 87.2362 129.498 87.2777 129.35 87.2985C114.809 93.8423 104.475 104.406 98.487 118.937C95.7155 125.668 91.7859 136.543 88.8659 149.932C88.8461 150.026 88.8263 150.119 88.8065 150.212C88.6779 150.805 88.5492 151.386 88.4304 151.989C88.4007 152.113 88.3809 152.238 88.3512 152.363C88.2324 152.934 88.1236 153.505 88.0048 154.087C87.985 154.232 87.9553 154.367 87.9256 154.513C86.8566 160.111 85.9955 166.084 85.4709 172.337C85.4709 172.378 85.461 172.42 85.461 172.461C85.4016 173.188 85.3422 173.926 85.2927 174.663C85.2927 174.715 85.2828 174.778 85.2828 174.83C85.2333 175.557 85.1838 176.284 85.1442 177.011C85.1442 177.084 85.1442 177.156 85.1343 177.229C83.2042 214.082 94.0031 259.037 144.82 291.662L146.741 292.888C152.303 296.472 157.777 299.993 164.023 302.932C164.033 302.932 164.033 302.932 164.043 302.943C164.547 303.171 165.042 303.41 165.557 303.639C165.567 303.639 165.587 303.649 165.597 303.649C166.092 303.878 166.596 304.085 167.111 304.303C167.121 304.303 167.141 304.314 167.161 304.324C172.446 306.537 178.355 308.292 185.314 309.331C185.344 309.331 185.363 309.331 185.393 309.341C185.967 309.424 186.531 309.507 187.105 309.58C187.145 309.59 187.185 309.59 187.214 309.601C187.788 309.663 188.372 309.725 188.956 309.788C188.986 309.788 189.026 309.798 189.065 309.798C193.5 310.266 198.35 310.442 203.724 310.266C218.008 309.03 223.244 306.827 227.866 303.213C233.419 298.85 239.398 288.027 239.457 287.913C239.497 287.85 239.536 287.788 239.586 287.726C239.605 287.695 239.625 287.663 239.645 287.632C239.724 287.549 239.803 287.466 239.883 287.393C239.922 287.373 239.952 287.352 239.982 287.331C240.041 287.29 240.1 287.248 240.16 287.217C240.209 287.196 240.259 287.186 240.298 287.165C240.358 287.144 240.407 287.113 240.457 287.103C240.506 287.082 240.566 287.082 240.615 287.071C240.665 287.061 240.724 287.04 240.773 287.04C240.823 287.04 240.882 287.04 240.932 287.04C240.991 287.04 241.041 287.04 241.09 287.051C241.15 287.051 241.199 287.071 241.249 287.082C241.308 287.092 241.357 287.103 241.417 287.113C241.466 287.134 241.506 287.155 241.555 287.175C241.605 287.206 241.664 287.217 241.714 287.248L241.724 287.258C241.734 287.258 241.734 287.258 241.734 287.269C241.773 287.29 241.803 287.31 241.833 287.341C241.892 287.383 241.951 287.414 242.001 287.466C242.04 287.497 242.07 287.528 242.1 287.57C242.139 287.612 242.189 287.663 242.228 287.705C242.258 287.747 242.278 287.799 242.308 287.84C242.337 287.892 242.377 287.944 242.397 287.996C242.426 288.037 242.436 288.089 242.456 288.141C242.476 288.193 242.496 288.245 242.515 288.307C242.525 288.359 242.535 288.411 242.545 288.463C242.555 288.515 242.565 288.578 242.575 288.629C242.575 288.692 242.575 288.744 242.575 288.796C242.575 288.858 242.575 288.91 242.575 288.972C242.565 289.024 242.555 289.087 242.545 289.138C242.535 289.19 242.525 289.253 242.506 289.305C242.506 289.305 242.506 289.305 242.506 289.315C242.496 289.367 242.466 289.419 242.446 289.471C242.426 289.512 242.417 289.564 242.397 289.606C242.357 289.679 239.061 296.326 237.527 299.619C237.151 300.45 236.755 301.343 236.359 302.247C235.844 303.483 235.221 304.999 234.666 306.36C234.369 307.077 234.092 307.752 233.874 308.302C233.726 308.656 233.607 308.957 233.508 309.196C233.37 309.549 233.241 309.902 233.102 310.255C228.381 322.699 224.303 337.957 227.807 347.472C234.498 365.659 265.638 375.652 265.944 375.756C266.429 375.901 266.816 376.275 267.013 376.763C267.211 377.241 267.182 377.802 266.944 378.259C266.657 378.851 260.154 392.032 268.716 399.448L284.236 368.879C276.268 365.369 247.93 352.229 245.178 341.489C242.417 330.666 250.82 313.974 256.878 303.836C257.383 302.984 257.877 302.174 258.343 301.416C258.917 300.502 259.451 299.66 259.936 298.923C260.926 297.396 261.698 296.264 262.134 295.641C262.312 295.381 262.431 295.204 262.48 295.132C263.044 294.363 264.094 294.197 264.836 294.779C265.37 295.204 265.598 295.9 265.469 296.555C296.53 282.418 319.118 257.448 329.194 226.578C329.194 226.411 329.214 226.235 329.253 226.069C337.172 198.159 331.223 178.943 331.164 178.756C331.104 178.569 331.084 178.382 331.084 178.195C331.084 178.153 331.094 178.102 331.094 178.06C331.104 177.894 331.144 177.738 331.193 177.582C331.213 177.541 331.223 177.489 331.243 177.447C331.302 177.302 331.391 177.167 331.49 177.042C331.51 177.021 331.51 177.001 331.53 176.99L331.777 176.699L334.301 173.864L334.43 173.729C334.856 173.22 335.311 172.669 335.816 172.046C336.281 171.475 336.786 170.831 337.31 170.155C345.684 159.415 361.888 135.453 376.537 95.3172ZM198.973 401.952L214.504 371.393C206.526 367.882 178.197 354.732 175.445 343.992C173.495 336.368 177.088 325.836 181.503 316.726C180.771 313.652 175.831 311.657 170.15 309.372C169.061 308.936 167.943 308.479 166.824 308.001C166.488 307.866 166.141 307.731 165.814 307.586C159.955 322.117 154.441 340.118 158.074 349.985C164.755 368.163 195.905 378.165 196.212 378.259C196.697 378.415 197.083 378.778 197.281 379.266C197.469 379.755 197.449 380.305 197.211 380.772C196.915 381.354 190.421 394.535 198.973 401.952ZM25.3394 73.6915C28.4672 80.8586 39.8798 104.603 43.3046 111.064C56.3603 135.723 69.1388 153.381 79.1459 165.274C81.472 163.809 83.8278 155.053 84.0752 149.704C66.7336 129.947 56.9443 112.778 52.1338 102.91C49.293 97.0934 48.224 89.272 47.3727 82.9879C46.9768 80.0484 46.4918 76.4856 45.9573 75.0938C44.9972 76.0182 45.5713 78.563 45.5812 78.5942C45.5911 78.615 45.5812 78.6254 45.5812 78.6461C45.5911 78.6877 45.6109 78.7292 45.6208 78.7708C45.9969 81.3987 45.3733 83.528 44.819 85.4081C44.1954 87.5374 43.651 89.3863 44.5122 91.8999C44.819 92.814 44.3637 93.8215 43.4926 94.1539C43.3046 94.2162 43.1165 94.2474 42.9284 94.2474C42.2455 94.2474 41.6021 93.8007 41.3546 93.084C40.1174 89.4694 40.9092 86.7584 41.612 84.3694C42.097 82.7074 42.5226 81.2637 42.3247 79.5394C41.5922 77.971 37.6032 69.464 35.386 65.5274C34.9208 64.7068 34.4259 64.1978 34.0597 64.1771C34.0498 64.1771 34.0498 64.1771 34.0399 64.1771C33.6439 64.1771 33.1292 64.5925 32.7828 64.9769C32.862 66.4103 34.7229 70.0353 36.3956 73.2761C36.9499 74.3563 37.5438 75.4989 38.1476 76.6934C38.5831 77.5555 38.2763 78.6254 37.4548 79.072C37.2073 79.2174 36.9301 79.2797 36.6728 79.2797C36.069 79.2797 35.485 78.937 35.1881 78.3449C34.5843 77.1504 34.0003 76.0182 33.446 74.9484C31.209 70.6274 29.6352 67.5424 29.4471 65.2261C29.1997 65.1534 28.8829 65.1742 28.487 65.4339C27.3982 66.1298 27.7446 67.0231 27.8733 67.2828C27.8733 67.2932 27.8733 67.3139 27.8832 67.3243C27.8931 67.3347 27.903 67.3555 27.9129 67.3659C29.5758 71.1883 33.6143 79.0928 33.6538 79.1759C34.0993 80.0276 33.7924 81.0975 32.9709 81.5545C32.7234 81.6999 32.4463 81.7726 32.179 81.7726C31.5851 81.7726 31.0011 81.4298 30.7042 80.8378C30.5458 80.5469 27.2695 74.1382 25.3889 70.0145C24.8742 70.1496 24.696 70.3262 24.6465 70.4092C24.6069 70.482 24.2605 71.2298 25.3394 73.6915ZM135.338 71.0221C137.219 73.8993 139.287 77.0569 142.435 79.2278L142.445 79.2382C143.118 79.7056 143.84 80.1315 144.632 80.495C144.652 80.5054 144.662 80.5054 144.682 80.5158C145.325 80.817 146.008 81.0663 146.731 81.274C147.107 81.3883 147.483 81.4818 147.859 81.5753C147.909 81.5856 147.958 81.596 148.008 81.6168C149.522 81.97 150.997 82.1881 152.363 82.3023C152.719 82.2296 153.461 82.0738 154.491 81.8142C155.095 81.6687 155.807 81.4818 156.57 81.2637C157.213 81.0871 157.886 80.9001 158.599 80.6716C159.43 80.4223 160.291 80.1315 161.172 79.8199C162.053 79.5082 162.954 79.1655 163.825 78.8019C164.825 78.3761 165.814 78.0333 166.775 77.7528C167.408 77.5659 168.032 77.3893 168.645 77.2543C170.813 76.683 173.357 76.4025 176.336 76.6311C180.088 76.8492 182.81 77.7528 183.79 78.1268C184.007 78.2099 184.146 78.2618 184.185 78.2826C184.859 78.5734 185.254 79.2797 185.205 80.0172C185.195 80.173 185.175 80.3392 185.126 80.5054C184.819 81.3883 183.908 81.8661 183.057 81.596C180.78 80.8689 178.732 80.4327 176.881 80.225C174.762 80.038 172.228 80.0899 169.457 80.682C165.676 81.6895 163.201 83.7461 161.37 85.2626C160.945 85.6262 156.164 89.729 151.323 93.8734C158.064 90.882 165.864 87.8698 169.863 87.8698C170.071 87.8698 170.279 87.8698 170.467 87.8905C172.377 88.0671 174.99 88.7423 178.029 89.6356C178.039 89.6356 178.049 89.6356 178.058 89.6356L192.134 93.7488C196.885 95.0056 201.784 96.0339 206.199 96.2417C206.229 96.2417 206.258 96.2417 206.278 96.2521C206.486 96.2625 220.69 97.6128 233.894 93.4684C236.012 92.8036 238.101 91.9934 240.1 91.017C243 89.6044 245.713 87.849 248.058 85.647C249.078 84.6914 250.107 83.7461 251.137 82.8217C253.354 80.8378 255.581 78.9162 257.778 77.0985C258.432 76.5583 259.085 76.0286 259.728 75.4989C260.382 74.9691 261.035 74.4498 261.678 73.9408L261.688 73.9304C267.36 69.4225 272.745 65.5066 277.199 62.2658C280.812 59.6483 283.92 57.3944 286.166 55.5662C294.54 48.742 299.668 42.2917 300.598 37.4098L300.885 35.8621C301.073 34.8338 301.241 33.9925 301.42 33.2758C300.459 34.086 299.549 35.322 298.826 37.1813C295.431 46.0102 286.325 55.452 275.061 61.8296C271.141 64.0524 265.459 67.7813 259.431 71.7284C258.541 72.3101 257.64 72.9021 256.749 73.4838C255.908 74.0343 255.066 74.5848 254.225 75.1353C253.344 75.7066 252.473 76.2779 251.602 76.8284C243.07 82.3335 235.29 87.0492 231.499 87.8386C231.37 87.8698 231.222 87.8905 231.063 87.9113C229.786 88.0983 227.787 88.0567 225.946 87.9633C225.233 87.9321 224.55 87.8905 223.937 87.8386C223.452 87.8075 223.006 87.7659 222.64 87.7347C222.115 87.6932 221.729 87.6516 221.581 87.6413C221.571 87.6413 221.571 87.6413 221.561 87.6413C221.096 87.5789 220.512 87.527 219.878 87.4751C219.146 87.4127 218.354 87.3608 217.631 87.3089C216.206 87.2154 215.028 87.1531 215.008 87.1427C214.108 87.1011 213.405 86.3013 213.425 85.3457C213.445 84.4005 214.187 83.6319 215.098 83.6319C215.256 83.6319 215.444 83.6215 215.622 83.6111C216.186 83.5903 216.79 83.5384 217.414 83.4657C217.998 83.393 218.582 83.2995 219.156 83.1749C220.462 82.884 221.62 82.4374 222.204 81.8453C222.462 81.3156 222.729 80.7028 222.996 80.0276C222.996 80.0276 222.996 80.0172 223.006 80.0068C223.234 79.4148 223.452 78.7708 223.65 78.0852C223.828 77.4828 223.986 76.8596 224.125 76.1948C224.125 76.1844 224.125 76.1844 224.125 76.1844C224.263 75.4781 224.382 74.7406 224.461 73.972C225.263 66.0883 229.183 59.0355 237.17 51.1102C240.793 47.5163 243.456 45.3662 245.92 43.5693C243.584 44.7845 241.189 46.3218 239.041 48.2123C235.953 50.9544 232.756 54.4029 229.371 58.0591C225.738 61.9958 222.016 66.0052 218.265 69.2667C215.978 72.1439 214.375 75.9663 213.415 78.7708C213.148 79.529 212.94 80.1938 212.771 80.7651C212.465 81.8142 212.296 82.4893 212.296 82.5205C212.277 82.6036 212.227 82.6659 212.197 82.749C211.94 83.4138 211.346 83.8604 210.663 83.8604C210.564 83.8604 210.465 83.85 210.356 83.8292C210.089 83.7773 209.851 83.663 209.654 83.4969C209.188 83.1229 208.921 82.5205 209 81.8765C209 81.8661 209 81.8661 209 81.8557C209.089 81.1909 209.168 80.5573 209.258 79.9549C209.891 75.6547 210.643 72.8814 211.316 70.7001C211.316 70.6897 211.326 70.6793 211.326 70.6689C211.326 70.6585 211.326 70.6481 211.336 70.6378C211.574 69.9626 216.592 55.7324 219.997 47.4956C217.572 47.3501 215.632 46.5503 214.226 45.0858C213.316 44.1302 212.762 43.0395 212.435 42.0008C208.02 46.6542 198.696 57.0204 196.063 64.2082C196.063 64.2186 196.053 64.229 196.053 64.229C196.053 64.2394 196.053 64.2394 196.053 64.2498L195.568 65.4754C194.519 68.1241 193.341 71.0948 191.886 77.1712C191.748 77.7113 191.619 78.2722 191.48 78.8746C191.381 79.3317 191.273 79.8095 191.164 80.2977C191.144 80.4119 191.085 80.5054 191.045 80.6093C190.778 81.2429 190.194 81.6687 189.53 81.6687C189.451 81.6687 189.372 81.6584 189.293 81.648C188.58 81.5441 188.036 80.9728 187.897 80.2665C187.868 80.1107 187.848 79.9549 187.858 79.7887C187.858 79.7368 187.887 79.3005 187.976 78.4903C188.036 78.0333 188.105 77.4516 188.204 76.7557C188.461 74.8653 188.917 72.1023 189.709 68.5396C190.283 65.8909 190.362 63.6162 190.362 62.484C187.689 60.3754 183.621 57.2385 179.464 54.3094C178.346 53.52 177.128 52.8033 175.841 52.0347C172.387 49.9988 168.626 47.7656 166.29 43.8393C165.983 47.2047 166.27 51.3907 168.645 54.6106C173.832 61.6115 186.323 73.6396 186.452 73.7539C187.016 74.3044 187.155 75.1873 186.789 75.904C186.63 76.1948 186.393 76.4129 186.135 76.5687C185.759 76.7869 185.314 76.8803 184.878 76.7557C184.859 76.7453 184.116 76.548 182.77 76.2987C179.702 75.7378 173.436 74.9587 165.23 75.8313C151.917 77.2543 145.513 73.6084 139.475 67.2828C138.218 65.9636 136.516 64.3225 134.546 62.432C124.895 53.1772 116.907 45.0234 116.997 39.1029C117.086 33.7016 117.096 27.9576 117.086 22.9926C115.72 29.9 114.69 37.9811 115.987 42.9564C117.244 47.776 120.807 52.1385 125.321 57.6644C128.112 61.0713 131.27 64.9353 134.368 69.5471C134.685 70.0145 135.001 70.5131 135.338 71.0221ZM215.592 40.8167C215.79 41.4296 216.087 42.0735 216.612 42.6033C217.315 43.3304 218.324 43.777 219.621 43.9328C218.76 42.8837 217.483 41.6892 215.592 40.8167ZM244.931 76.9634C239.694 77.2231 234.25 77.8671 228.609 78.8954C227.391 81.4506 226.926 83.2476 226.817 84.4836C228.529 84.5563 230.083 84.5459 230.836 84.3901C233.439 83.8396 238.794 80.7962 244.931 76.9634ZM223.303 240.569C220.225 242.511 214.652 243.633 209.703 241.504C208.842 241.13 207.862 241.566 207.515 242.47C207.169 243.363 207.575 244.391 208.436 244.765C210.762 245.762 213.167 246.178 215.484 246.178C219.185 246.178 222.63 245.108 225.025 243.592C225.827 243.093 226.084 242.013 225.609 241.182C225.134 240.34 224.095 240.07 223.303 240.569ZM198.013 73.4526C198.152 73.4838 198.29 73.5046 198.429 73.5046C199.181 73.5046 199.864 72.9748 200.052 72.175C202.616 61.5076 209.485 52.741 209.555 52.6475C210.148 51.8996 210.049 50.7882 209.337 50.1754C208.624 49.5522 207.565 49.656 206.981 50.3935C206.674 50.7778 199.557 59.8561 196.806 71.3129C196.578 72.2581 197.122 73.2137 198.013 73.4526ZM195.479 82.6451C195.608 82.6763 195.737 82.6971 195.865 82.6971C196.578 82.6971 197.211 82.2089 197.439 81.4818C197.459 81.4298 197.489 81.3883 197.499 81.3364L197.855 79.7575L198.241 78.0541L198.251 77.9814C198.469 77.0361 197.914 76.0909 197.004 75.8624C196.113 75.6443 195.202 76.226 194.994 77.1712L194.905 77.5555L194.519 79.2693L194.232 80.5262C194.193 80.6924 194.193 80.8482 194.193 81.004C194.232 81.7726 194.727 82.4582 195.479 82.6451ZM281.237 119.072C280.722 118.262 279.683 118.044 278.911 118.574C278.139 119.114 277.921 120.204 278.436 121.015C279.564 122.812 280.802 125.315 280.812 125.336C281.109 125.938 281.693 126.291 282.306 126.291C282.564 126.291 282.821 126.229 283.068 126.094C283.89 125.647 284.217 124.588 283.791 123.726C283.741 123.611 282.465 121.025 281.237 119.072ZM133.428 108.987C133.348 109.07 131.497 111.189 130.191 115.032C129.874 115.946 130.329 116.953 131.2 117.275C131.389 117.348 131.577 117.379 131.765 117.379C132.458 117.379 133.101 116.933 133.348 116.216C134.398 113.11 135.863 111.407 135.892 111.376C136.516 110.669 136.476 109.558 135.803 108.893C135.12 108.239 134.061 108.27 133.428 108.987ZM247.722 180.916C247.851 181.872 247.217 182.765 246.297 182.9C245.772 182.983 245.267 183.015 244.792 183.015C244.198 183.015 243.634 182.963 243.119 182.859C243.159 189.974 242.387 210 233.122 222.132C233.102 222.153 233.092 222.163 233.083 222.184C232.696 222.672 232.31 223.15 231.905 223.617C231.835 223.7 231.766 223.773 231.707 223.846C231.271 224.324 230.836 224.791 230.38 225.238C230.192 225.414 230.014 225.591 229.826 225.757C229.579 225.986 229.331 226.204 229.074 226.411C228.797 226.65 228.5 226.879 228.213 227.107C228.015 227.253 227.817 227.409 227.619 227.554C227.124 227.907 226.609 228.24 226.084 228.562C225.926 228.655 225.768 228.728 225.609 228.821C225.184 229.06 224.748 229.289 224.303 229.507C224.125 229.59 223.956 229.673 223.778 229.756C223.174 230.026 222.561 230.275 221.927 230.494C221.086 230.784 220.245 231.034 219.413 231.252C216.78 231.927 214.167 232.228 211.613 232.228C187.986 232.228 168.368 206.219 167.428 204.962C166.973 204.349 166.953 203.487 167.388 202.854C167.824 202.22 168.606 201.96 169.308 202.22C169.417 202.262 175.228 204.298 184.443 203.311C184.463 203.3 184.473 203.3 184.492 203.3C185.096 203.238 185.71 203.155 186.343 203.061C186.413 203.051 186.472 203.041 186.551 203.03C187.224 202.926 187.927 202.812 188.64 202.677C188.729 202.656 188.818 202.646 188.907 202.625C189.243 202.553 189.58 202.48 189.926 202.407C190.085 202.376 190.253 202.334 190.411 202.303C190.708 202.231 191.015 202.158 191.312 202.085C191.53 202.033 191.748 201.971 191.965 201.919C192.243 201.846 192.51 201.773 192.787 201.701C193.044 201.628 193.312 201.545 193.579 201.462C193.826 201.4 194.064 201.327 194.311 201.254C194.628 201.15 194.965 201.046 195.291 200.932C195.489 200.87 195.687 200.807 195.885 200.735C196.42 200.558 196.954 200.361 197.499 200.164C211.772 194.814 232.202 183.555 238.586 179.961C237.804 178.932 237.329 177.821 237.121 176.949C236.893 176.014 237.438 175.048 238.338 174.819C239.229 174.58 240.14 175.141 240.368 176.086C240.476 176.502 241.526 180.054 245.831 179.421C246.732 179.275 247.593 179.95 247.722 180.916ZM227.926 222.807C230.974 219.909 233.469 215.889 235.399 210.737C235.389 210.737 235.379 210.737 235.369 210.737C222.927 211.496 209.159 215.339 207.585 228.375C207.585 228.375 207.585 228.385 207.585 228.395C209.485 228.655 211.356 228.728 213.207 228.634C213.316 228.634 213.435 228.624 213.543 228.613C214.009 228.582 214.474 228.541 214.939 228.489C215.117 228.468 215.295 228.447 215.474 228.426C215.889 228.364 216.305 228.302 216.711 228.229C216.909 228.198 217.117 228.156 217.315 228.115C217.73 228.032 218.146 227.938 218.562 227.834C218.74 227.783 218.928 227.741 219.106 227.699C219.7 227.533 220.294 227.357 220.878 227.149C221.363 226.983 221.838 226.796 222.303 226.588C222.432 226.536 222.561 226.474 222.68 226.411C223.036 226.245 223.392 226.069 223.729 225.882C223.838 225.819 223.946 225.767 224.055 225.705C224.946 225.196 225.807 224.614 226.629 223.95C226.649 223.929 226.678 223.908 226.698 223.887C227.084 223.576 227.46 223.243 227.836 222.89C227.866 222.859 227.896 222.838 227.926 222.807ZM196.133 204.349C195.925 204.412 195.727 204.474 195.519 204.536C194.826 204.755 194.143 204.962 193.48 205.139C193.361 205.18 193.252 205.212 193.133 205.243C188.006 206.614 183.483 207.081 179.83 207.112L179.84 207.123C181.731 208.857 184.542 210.904 188.075 211.87C199.439 214.975 225.233 201.233 239.368 191.522C239.378 191.522 239.388 191.511 239.388 191.511C239.675 188.156 239.754 185.279 239.754 183.295C239.754 183.305 239.754 183.305 239.744 183.305C238.655 183.918 237.24 184.708 235.557 185.622C226.649 190.514 210.554 199.011 198.627 203.477C197.786 203.789 196.954 204.079 196.133 204.349Z" fill="#171017"/>
</svg>
